<?xml version="1.0" standalone="no"?>
<!DOCTYPE svg PUBLIC "-//W3C//DTD SVG 20010904//EN"
 "http://www.w3.org/TR/2001/REC-SVG-20010904/DTD/svg10.dtd">
<svg version="1.0" xmlns="http://www.w3.org/2000/svg"
 width="640.000000pt" height="640.000000pt" viewBox="0 0 640.000000 640.000000"
 preserveAspectRatio="xMidYMid meet">
<metadata>
Created by potrace 1.11, written by Peter Selinger 2001-2013
</metadata>
<g transform="translate(0.000000,640.000000) scale(0.100000,-0.100000)"
fill="#000000" stroke="none">
<path d="M3055 5283 c-210 -23 -431 -106 -624 -235 -103 -69 -293 -262 -363
-368 -141 -216 -226 -472 -230 -691 0 -33 -3 -36 -42 -47 -22 -6 -44 -11 -48
-12 -4 0 -29 -7 -55 -15 -45 -14 -68 -12 -59 4 3 4 8 23 11 42 3 19 15 83 25
143 11 60 18 111 16 113 -2 2 -37 -14 -78 -35 -59 -32 -183 -77 -265 -98 -8
-2 -8 -13 2 -42 8 -22 12 -53 9 -68 -5 -32 -37 -64 -64 -64 -28 0 -68 37 -80
75 -6 19 -17 35 -23 36 -7 1 -25 2 -42 4 -93 8 -237 47 -295 79 -23 13 -26 12
-62 -38 -53 -70 -122 -140 -191 -193 -45 -35 -55 -48 -48 -61 19 -37 -9 -109
-45 -118 -44 -11 -91 39 -99 104 -1 15 -3 28 -4 29 0 1 -22 -4 -48 -12 -104
-29 -188 -42 -291 -44 l-43 -1 101 -121 c55 -67 99 -123 97 -125 -2 -2 -48
-15 -103 -30 -54 -14 -102 -28 -105 -30 -6 -3 44 -133 96 -249 7 -16 28 -66
45 -110 17 -44 38 -93 45 -110 12 -28 39 -91 147 -355 21 -52 48 -115 58 -140
18 -41 305 -738 389 -944 l37 -90 115 -45 c122 -49 126 -51 149 -59 8 -3 94
-36 190 -74 96 -39 204 -81 240 -94 36 -14 73 -29 82 -35 40 -21 48 -16 115
71 23 31 54 67 68 80 l27 25 -7 -30 c-4 -16 -11 -43 -16 -59 -14 -44 -11 -51
13 -30 12 10 18 14 15 7 -4 -6 -3 -14 3 -18 5 -3 10 1 10 9 0 9 5 16 11 16 5
0 8 -4 5 -8 -3 -5 1 -9 9 -9 8 0 17 7 19 14 4 9 1 12 -7 7 -7 -4 -7 -1 2 7 10
11 15 11 18 2 3 -7 14 -13 24 -13 11 0 18 4 15 9 -10 15 21 20 41 6 15 -10 22
-11 36 -1 9 7 14 16 10 19 -3 4 -1 7 5 7 7 0 12 -6 12 -12 0 -8 5 -6 10 4 6
10 18 14 30 11 12 -3 20 0 20 8 0 7 3 9 7 6 3 -4 11 1 18 10 9 12 8 24 -7 54
-10 21 -18 45 -18 54 0 8 -6 15 -12 15 -9 0 -8 4 2 10 10 6 11 10 3 10 -19 0
-16 35 4 51 10 8 14 9 10 2 -4 -6 -3 -14 3 -18 5 -3 10 -1 10 5 0 6 5 8 10 5
6 -4 7 -11 4 -17 -4 -7 -2 -8 5 -4 6 4 9 12 6 17 -4 5 -1 9 4 9 6 0 11 -5 11
-11 0 -5 5 -7 10 -4 6 4 7 11 4 17 -4 7 -2 8 5 4 6 -4 9 -11 6 -16 -3 -4 2
-10 10 -13 9 -4 12 -1 9 7 -3 7 2 13 11 13 9 0 14 -6 11 -13 -6 -15 23 -12 33
5 5 8 30 -7 79 -48 180 -151 402 -258 607 -295 97 -18 135 -21 275 -21 141 0
182 3 290 21 79 13 257 79 365 134 122 63 123 64 142 48 7 -5 18 -6 24 -2 7 4
9 3 6 -3 -4 -6 0 -14 9 -17 24 -9 31 -7 14 4 -12 8 -11 10 7 10 12 0 27 -8 32
-17 7 -12 10 -14 11 -4 0 10 5 10 26 -4 21 -14 28 -14 42 -3 13 11 14 11 7 -1
-6 -11 -4 -13 8 -8 12 4 17 1 18 -11 0 -14 2 -14 9 3 5 11 9 15 9 9 1 -17 57
-25 88 -13 19 7 29 6 37 -2 8 -9 8 -10 -1 -5 -7 4 -21 3 -30 -3 -15 -8 -13 -9
9 -7 15 1 35 9 44 17 12 10 15 10 10 1 -6 -9 -1 -11 16 -8 41 8 58 18 51 30
-4 6 2 4 12 -4 17 -14 18 -13 12 4 -6 15 -5 17 6 7 11 -9 17 -7 28 6 13 16 12
17 -3 4 -10 -7 -18 -9 -18 -3 0 20 28 20 56 1 39 -27 184 -99 184 -92 0 3 6 1
13 -5 10 -8 38 -18 112 -38 111 -30 310 -41 415 -23 311 55 584 250 729 521
48 89 73 154 105 278 24 93 68 258 201 755 86 320 94 363 90 515 -7 256 -104
491 -284 683 -97 104 -265 211 -396 253 -283 90 -531 75 -781 -46 -96 -47
-220 -137 -287 -208 -26 -29 -49 -52 -51 -52 -1 0 -3 39 -4 88 0 85 -10 211
-17 222 -2 3 -6 26 -10 50 -11 73 -74 248 -125 348 -63 121 -133 215 -244 330
-207 212 -459 343 -766 397 -39 7 -328 13 -375 8z m-940 -3973 c-3 -5 -12 -10
-18 -10 -7 0 -6 4 3 10 19 12 23 12 15 0z m2170 -48 c-3 -3 -11 0 -18 7 -9 10
-8 11 6 5 10 -3 15 -9 12 -12z m-2290 -1 c3 -5 2 -12 -3 -15 -5 -3 -9 1 -9 9
0 17 3 19 12 6z"/>
</g>
</svg>
